HIERARCHY
ROOT Hips
{
  OFFSET -176.663 94.5145 -179.177
  CHANNELS 6 Xposition Yposition Zposition Zrotation Xrotation Yrotation
  JOINT ToSpine
  {
    OFFSET -2.69724 7.43032 -0.144315
    CHANNELS 3 Zrotation Xrotation Yrotation
    JOINT Spine
    {
      OFFSET -0.0310711 10.7595 1.96963
      CHANNELS 3 Zrotation Xrotation Yrotation
      JOINT Spine1
      {
        OFFSET 13.1342 3.43533 0.764692
        CHANNELS 3 Zrotation Xrotation Yrotation
        JOINT Neck
        {
          OFFSET 29.8703 7.82586 -0.130764
          CHANNELS 3 Zrotation Xrotation Yrotation
          JOINT Head
          {
            OFFSET 9.52751 0.295786 -0.907742
            CHANNELS 3 Zrotation Xrotation Yrotation
            End Site
            {
              OFFSET 16.4037 0.713936 2.7358
            }
          }
        }
        JOINT LeftShoulder
        {
          OFFSET 27.5574 4.95586 2.47156
          CHANNELS 3 Zrotation Xrotation Yrotation
          JOINT LeftArm
          {
            OFFSET 1.20734 -0.998971 20.1238
            CHANNELS 3 Zrotation Xrotation Yrotation
            JOINT LeftForeArm
            {
              OFFSET 26.8049 -0.0536703 -0.155908
              CHANNELS 3 Zrotation Xrotation Yrotation
              JOINT LeftHand
              {
                OFFSET 26.6817 0 0.320147
                CHANNELS 3 Zrotation Xrotation Yrotation
                End Site
                {
                  OFFSET 18.6119 0 0.382219
                }
              }
            }
          }
        }
        JOINT RightShoulder
        {
          OFFSET 27.5927 4.71444 -2.65209
          CHANNELS 3 Zrotation Xrotation Yrotation
          JOINT RightArm
          {
            OFFSET 2.83739 -1.17114 -18.7564
            CHANNELS 3 Zrotation Xrotation Yrotation
            JOINT RightForeArm
            {
              OFFSET 28.839 -0.0548439 1.22491
              CHANNELS 3 Zrotation Xrotation Yrotation
              JOINT RightHand
              {
                OFFSET 26.5114 0 -0.101894
                CHANNELS 3 Zrotation Xrotation Yrotation
                End Site
                {
                  OFFSET 18.2168 0 0
                }
              }
            }
          }
        }
      }
    }
  }
  JOINT LeftUpLeg
  {
    OFFSET -4.76168 -1.9167 -10.2353
    CHANNELS 3 Zrotation Xrotation Yrotation
    JOINT LeftLeg
    {
      OFFSET 2.55951 -42.0585 -8.02213
      CHANNELS 3 Zrotation Xrotation Yrotation
      JOINT LeftFoot
      {
        OFFSET 3.16357 -42.5282 -3.95426
        CHANNELS 3 Zrotation Xrotation Yrotation
        JOINT LeftToeBase
        {
          OFFSET 0.346054 -6.02161 12.8035
          CHANNELS 3 Zrotation Xrotation Yrotation
          End Site
          {
            OFFSET 0.134235 -1.35082 5.13018
          }
        }
      }
    }
  }
  JOINT RightUpLeg
  {
    OFFSET -4.94151 -1.41743 10.6446
    CHANNELS 3 Zrotation Xrotation Yrotation
    JOINT RightLeg
    {
      OFFSET -2.56294 -42.0364 -7.94377
      CHANNELS 3 Zrotation Xrotation Yrotation
      JOINT RightFoot
      {
        OFFSET -3.0952 -42.555 -4.02241
        CHANNELS 3 Zrotation Xrotation Yrotation
        JOINT RightToeBase
        {
          OFFSET -0.0828122 -6.13587 12.8035
          CHANNELS 3 Zrotation Xrotation Yrotation
          End Site
          {
            OFFSET -0.131328 -1.35082 5.13018
          }
        }
      }
    }
  }
}
MOTION
Frames:	11
Frame Time:	0.00833333
-291.857 92.2898 -291.566 63.899 -33.2049 -19.787 -70.1915 0 88.8779 71.5802 66.0404 10.9872 8.5318 15.7008 1.43718 -151.382 18.8841 175.038 -151.759 57.5738 -177.188 0.142878 -14.7568 -30.1829 -74.998 34.6294 -94.8906 17.5249 13.5464 -52.9343 0.420957 0.000575445 0.35866 -1.8249 5.27235 49.0163 -64.8598 -37.1676 74.9094 9.06083 -16.565 29.2885 0.58676 0.000331142 0.0646653 -63.2666 -5.71522 99.7435 -1.42064 32.3107 -25.6893 5.60753 -15.3406 -1.27676 4.39104 -11.0611 9.36245 -26.8628 -3.58378 85.7199 1.73354 14.6402 1.67277 -4.68476 -3.67476 0.891519 2.04534 -22.9483 -17.8195 
-290.937 92.0344 -290.627 64.0035 -32.9209 -19.6766 -70.1915 0 88.8779 71.2443 65.8292 11.166 8.77855 15.4721 1.5483 -151.581 18.8541 175.067 -151.807 57.5354 -177.286 0.168731 -14.6489 -30.0758 -75.41 34.4698 -95.1071 17.6673 13.5188 -53.2231 0.420957 0.000575445 0.35866 -1.83078 5.25031 49.2517 -64.9138 -37.0306 74.374 9.07191 -16.6472 29.1533 0.58676 0.000331142 0.0646653 -64.0558 -5.4025 99.8513 -1.4738 32.4805 -26.4204 5.56964 -15.3008 -1.27599 4.72263 -11.637 9.43903 -26.709 -3.63651 85.8683 1.77241 13.3916 2.70705 -4.00437 -3.7873 0.829927 1.95862 -23.9143 -18.6958 
-290.029 91.7738 -289.675 64.1153 -32.6296 -19.5362 -70.1915 0 88.8779 71.029 65.6231 11.2349 8.98193 15.2385 1.65905 -151.777 18.8165 175.049 -151.837 57.4879 -177.415 0.196043 -14.5407 -29.9335 -75.8299 34.3797 -95.2947 17.9478 13.6156 -53.488 0.420957 0.000575445 0.35866 -1.82998 5.20321 49.5307 -64.96 -36.8754 73.8683 9.06645 -16.7047 28.9804 0.58676 0.000331142 0.0646653 -64.7969 -5.06053 99.9057 -1.49436 32.7383 -27.122 5.50363 -15.2345 -1.27477 5.06349 -12.2217 9.46055 -26.5662 -3.74689 85.8824 1.75598 12.4736 3.60916 -3.07545 -3.89661 0.744249 1.90358 -24.9288 -19.226 
-289.128 91.5071 -288.712 64.2433 -32.3472 -19.3662 -70.1915 0 88.8779 70.9363 65.4377 11.1844 9.14364 15.006 1.80001 -151.962 18.7815 175.023 -151.866 57.4428 -177.548 0.225231 -14.4252 -29.7704 -76.2485 34.3297 -95.4115 18.268 13.753 -53.7313 0.420957 0.000575445 0.35866 -1.82528 5.14152 49.8416 -65.0251 -36.7218 73.3951 9.02853 -16.7658 28.7688 0.58676 0.000331142 0.0646653 -65.5083 -4.76395 99.7859 -1.50826 33.0596 -27.651 5.41719 -15.1083 -1.27077 5.42547 -12.832 9.42129 -26.4215 -3.8482 85.8472 1.69467 11.9741 4.32122 -2.22588 -4.00894 0.666596 1.8682 -25.8465 -19.5545 
-288.225 91.2454 -287.736 64.3968 -32.0901 -19.1664 -70.1915 0 88.8779 70.9687 65.2887 11.0045 9.26583 14.7809 2.00165 -152.125 18.7592 175.034 -151.911 57.4119 -177.663 0.249603 -14.3249 -29.6407 -76.6576 34.2903 -95.4144 18.5276 13.8489 -53.9543 0.420957 0.000575445 0.35866 -1.81725 5.07737 50.1196 -65.1364 -36.5893 72.9563 8.94184 -16.8588 28.5177 0.58676 0.000331142 0.0646653 -66.2078 -4.58196 99.381 -1.54783 33.4238 -27.8609 5.31797 -14.889 -1.26172 5.81996 -13.4851 9.31553 -26.2616 -3.86782 85.8439 1.5997 11.9805 4.78447 -1.78334 -4.13057 0.629092 1.83263 -26.5167 -19.8249 
-287.315 90.9996 -286.747 64.6125 -31.8286 -18.9272 -70.1915 0 88.8779 71.1871 65.1917 10.5631 9.32619 14.551 2.32456 -152.267 18.7581 175.082 -151.973 57.4038 -177.76 0.26307 -14.2626 -29.5982 -77.0554 34.2335 -95.2921 18.7189 13.8943 -54.1641 0.420957 0.000575445 0.35866 -1.80688 5.02269 50.3 -65.239 -36.5099 72.5881 8.77245 -16.9033 28.2156 0.58676 0.000331142 0.0646653 -66.9095 -4.42035 98.6503 -1.62054 33.842 -27.6504 5.22957 -14.6515 -1.25209 6.19466 -14.0921 9.07086 -26.0971 -3.86569 85.899 1.49588 12.6125 5.09076 -1.90036 -4.36095 0.650327 1.77599 -26.8529 -20.3635 
-286.403 90.7727 -285.745 64.873 -31.5649 -18.6525 -70.1915 0 88.8779 71.5677 65.1323 9.91077 9.33298 14.3171 2.73458 -152.391 18.7708 175.149 -152.043 57.4104 -177.85 0.260592 -14.2595 -29.6827 -77.4456 34.1811 -95.0686 18.8886 13.9292 -54.3577 0.420957 0.000575445 0.35866 -1.79257 4.97742 50.3475 -65.341 -36.4667 72.2753 8.53945 -16.9127 27.8667 0.58676 0.000331142 0.0646653 -67.6016 -4.23232 97.6768 -1.72212 34.3232 -27.1119 5.14067 -14.3857 -1.24146 6.55641 -14.6752 8.71249 -25.9304 -3.85327 85.9664 1.35169 13.7918 5.24095 -2.37978 -4.66415 0.709892 1.72478 -26.9519 -20.9892 
-285.491 90.5589 -284.732 65.108 -31.363 -18.3604 -70.1915 0 88.8779 71.9875 65.0832 9.30947 9.33254 14.1054 3.1204 -152.498 18.7839 175.243 -152.128 57.4187 -177.921 0.24665 -14.2982 -29.8569 -77.8284 34.1775 -94.7534 19.0173 13.9466 -54.5201 0.420957 0.000575445 0.35866 -1.7748 4.93606 50.3025 -65.5635 -36.4044 71.9435 8.30253 -17.0584 27.4931 0.58676 0.000331142 0.0646653 -68.2698 -4.10305 96.5465 -1.86912 34.844 -26.3885 5.00621 -13.9303 -1.22024 7.00636 -15.4191 8.38229 -25.7361 -3.68813 86.0198 1.11971 15.3104 5.03422 -3.0252 -4.84331 0.781343 1.72858 -26.944 -21.0856 
-284.563 90.3557 -283.703 65.2492 -31.2876 -18.0683 -70.1915 0 88.8779 72.3242 65.021 9.02107 9.36889 13.9423 3.37128 -152.588 18.7837 175.375 -152.237 57.4156 -177.963 0.229745 -14.3446 -30.059 -78.2057 34.2672 -94.3532 19.0857 13.9395 -54.6367 0.420957 0.000575445 0.35866 -1.75768 4.90223 50.2145 -66.0255 -36.2653 71.5205 8.11677 -17.5142 27.1166 0.58676 0.000331142 0.0646653 -68.9055 -4.07817 95.3459 -2.07292 35.3818 -25.6267 4.78044 -13.1241 -1.17916 7.64925 -16.5085 8.22461 -25.4884 -3.23924 86.0599 0.783571 16.9607 4.25984 -3.64153 -4.7016 0.838106 1.83136 -26.9553 -20.0387 
-283.603 90.1611 -282.655 65.274 -31.3824 -17.7916 -70.1915 0 88.8779 72.5031 64.9411 9.1875 9.47495 13.849 3.42441 -152.649 18.7673 175.552 -152.383 57.401 -177.945 0.219004 -14.3648 -30.2269 -78.6049 34.4714 -93.8312 19.0733 13.8904 -54.7106 0.420957 0.000575445 0.35866 -1.74515 4.87979 50.1328 -66.7802 -36.0427 70.9942 7.98605 -18.3658 26.7384 0.58676 0.000331142 0.0646653 -69.5577 -4.20526 93.951 -2.38537 35.8873 -24.7979 4.4574 -11.7929 -1.11973 8.63622 -18.1927 8.40037 -25.1442 -2.40606 86.2862 0.30117 18.8159 2.40106 -4.31756 -4.10811 0.885392 2.11365 -26.9635 -16.7966 
-282.593 89.9643 -281.583 65.2239 -31.605 -17.5156 -70.1915 0 88.8779 72.6081 64.8556 9.64096 9.61812 13.8068 3.35041 -152.684 18.7416 175.769 -152.558 57.3808 -177.881 0.217343 -14.3517 -30.3348 -79.0223 34.7565 -93.1861 18.9953 13.8088 -54.7475 0.420957 0.000575445 0.35866 -1.73774 4.87129 50.0527 -67.7524 -35.7605 70.406 7.87401 -19.5129 26.3532 0.58676 0.000331142 0.0646653 -70.2244 -4.13584 92.4428 -2.78945 36.3834 -23.8422 4.0562 -10.0664 -1.04692 9.90041 -20.3024 8.80889 -24.7366 -1.427 86.811 -0.146242 20.9176 -0.328563 -5.11184 -3.19399 0.933347 2.47827 -26.772 -11.9905 
